<?xml version="1.0" encoding="UTF-8"?>
<svg xmlns="http://www.w3.org/2000/svg" style="stroke-dasharray:none; shape-rendering:auto; font-family:'Arial'; text-rendering:auto; fill-opacity:1; color-interpolation:auto; color-rendering:auto; font-size:12; fill:black; stroke:black; image-rendering:auto; stroke-miterlimit:10; stroke-linecap:square; stroke-linejoin:miter; font-style:normal; stroke-width:1; stroke-dashoffset:0; font-weight:normal; stroke-opacity:1;" contentScriptType="text/ecmascript" preserveAspectRatio="xMidYMid meet" zoomAndPan="magnify" version="1.0" contentStyleType="text/css" xml:xlink="http://www.w3.org/1999/xlink" width="761" height="300"><rect x="60" y="10" width="701" height="290" ry="0" rx="0" style="stroke:#000000; fill:#FFFFFF" /><rect x="90" y="155" width="671" height="145" ry="0" rx="0" style="stroke:#000000; fill:#C0C0C0" /><g componentSequence="3"><text x="-227" y="97" transform="rotate(270)" text-anchor="middle" style="font-weight:bold;font-size:10px;stroke:none; fill:#434343"><tspan dy="14" x="-227">Assignee</tspan></text></g><rect x="90" y="10" width="671" height="145" ry="0" rx="0" style="stroke:#000000; fill:#9F9F9F" /><g componentSequence="2"><text x="-82" y="97" transform="rotate(270)" text-anchor="middle" style="font-weight:bold;font-size:10px;stroke:none; fill:#434343"><tspan dy="14" x="-82">Reporter</tspan></text></g><g componentSequence="1"><text x="-155" y="67" transform="rotate(270)" text-anchor="middle" style="font-weight:bold;font-size:10px;stroke:none; fill:#434343"><tspan dy="14" x="-155">Pool</tspan></text></g><g sequence="4"><ellipse cx="157" cy="83" rx="17" ry="17" stroke-width="1" style="fill:url(#linearGradient66FF6696FF96B6FFB6_1511923006);" stroke="336633" /></g><g sequence="5"><rect x="260" y="201" width="106" height="56" ry="5" rx="5" style="fill:url(#linearGradientF8FBFEEDF5FCDEEDFAD4E7F8E2E5E9_1423570957);" stroke="191970" /></g><g componentSequence="5"><text x="313" y="218" text-anchor="middle" style="font-weight:bold;font-size:10px;stroke:none; fill:#333399"><tspan dy="14" x="313">Aprovacao</tspan></text></g><g sequence="7"><ellipse cx="657" cy="83" rx="17" ry="17" stroke-width="3" style="fill:url(#linearGradientFF6666FF9696FFB6B6_1357280846);" stroke="993333" /></g><g sequence="10"><polygon points=" 280 70 310 40 340 70 310 100 280 70" style="fill:url(#linearGradientFAFBFCFFFFCC_367325750);" stroke="000000" /></g><g componentSequence="10"><text x="310" y="103" text-anchor="middle" style="font-weight:bold;font-size:10px;stroke:none; fill:#333399"><tspan dy="14" x="310">Decisão</tspan></text></g><g sequence="11"><ellipse cx="657" cy="228" rx="17" ry="17" stroke-width="3" style="fill:url(#linearGradientFF6666FF9696FFB6B6_1060760153);" stroke="993333" /></g><g sequence="11"><polygon points=" 648 224 653 219 658 224 663 219 668 224 663 229 668 234 663 239 658 234 653 239 648 234 653 229" style="stroke:none; fill:#993333" /></g><g sequence="15"><polygon points=" 460 215 490 185 520 215 490 245 460 215" style="fill:url(#linearGradientFAFBFCFFFFCC_616260643);" stroke="000000" /></g><g componentSequence="15"><text x="490" y="248" text-anchor="middle" style="font-weight:bold;font-size:10px;stroke:none; fill:#333399"><tspan dy="14" x="490">Decisão</tspan></text></g><g sequence="23"><rect x="440" y="42" width="106" height="84" ry="5" rx="5" style="fill:url(#linearGradientF8FBFEEDF5FCDEEDFAD4E7F8E2E5E9_1200366332);" stroke="191970" /></g><g componentSequence="23"><text x="493" y="57" text-anchor="middle" style="font-weight:bold;font-size:10px;stroke:none; fill:#333399"><tspan dy="14" x="493">Solicitante</tspan><tspan dy="14" x="493">Acompanha</tspan><tspan dy="14" x="493">Assinatura</tspan></text></g><g componentSequence="12"><text x="237" y="83" style="font-size:10px;font-weight:none;stroke:none; fill:#333399" text-anchor="left" /></g><g componentSequence="13"><text x="322" y="164" style="font-size:10px;font-weight:none;stroke:none; fill:#333399" text-anchor="left" /></g><g componentSequence="14"><text x="400" y="84" style="font-size:10px;font-weight:none;stroke:none; fill:#333399" text-anchor="left" /></g><g componentSequence="16"><text x="423" y="229" style="font-size:10px;font-weight:none;stroke:none; fill:#333399" text-anchor="left" /></g><g componentSequence="17"><text x="502" y="155" style="font-size:10px;font-weight:none;stroke:none; fill:#333399" text-anchor="left" /></g><g componentSequence="18"><text x="590" y="228" style="font-size:10px;font-weight:none;stroke:none; fill:#333399" text-anchor="left" /></g><g componentSequence="19"><text x="603" y="83" style="font-size:10px;font-weight:none;stroke:none; fill:#333399" text-anchor="left" /></g><g componentSequence="20"><text x="232" y="284" style="font-size:10px;font-weight:none;stroke:none; fill:#333399" text-anchor="left" /></g><path style="fill:none; stroke:#000000;stroke-width:1" d="M174.0 83.0 L279.0 83.0" /><polygon style="fill:#000000; stroke:#000000;" points=" 269 78 279 83 269 88 271 83" /><path style="fill:none; stroke:#000000;stroke-width:1" d="M459.0 256.0 L428.0 284.0 L157.0 284.0 L157.0 101.0" /><polygon style="fill:#000000; stroke:#000000;" points=" 152 111 157 101 162 111 157 109" /><path style="fill:none; stroke:#000000;stroke-width:1" d="M366.0 229.0 L459.0 229.0" /><polygon style="fill:#000000; stroke:#000000;" points=" 449 224 459 229 449 234 451 229" /><path style="fill:none; stroke:#000000;stroke-width:1" d="M311.0 128.0 L312.0 200.0" /><polygon style="fill:#000000; stroke:#000000;" points=" 317 190 312 200 307 190 312 192" /><path style="fill:none; stroke:#000000;stroke-width:1" d="M546.0 83.0 L640.0 83.0" /><polygon style="fill:#000000; stroke:#000000;" points=" 630 78 640 83 630 88 632 83" /><path style="fill:none; stroke:#000000;stroke-width:1" d="M340.0 84.0 L439.0 84.0" /><polygon style="fill:#000000; stroke:#000000;" points=" 429 79 439 84 429 89 431 84" /><path style="fill:none; stroke:#000000;stroke-width:1" d="M520.0 228.0 L640.0 228.0" /><polygon style="fill:#000000; stroke:#000000;" points=" 630 223 640 228 630 233 632 228" /><path style="fill:none; stroke:#000000;stroke-width:1" d="M491.0 184.0 L492.0 126.0" /><polygon style="fill:#000000; stroke:#000000;" points=" 487 136 492 126 497 136 492 134" /><defs><linearGradient xmlns:xlink="http://www.w3.org/1999/xlink" xlink:href="#linearGradient66FF6696FF96B6FFB6" id="linearGradient66FF6696FF96B6FFB6_1511923006" x1="0" y1="66.0" x2="0" y2="101.0" gradientUnits="userSpaceOnUse" xlink:type="simple" xlink:actuate="onLoad" xlink:show="other" /><linearGradient id="linearGradient66FF6696FF96B6FFB6"><stop style="stop-color:#66FF66;stop-opacity:1;" offset="0.0" id="stop66FF66" /><stop style="stop-color:#96FF96;stop-opacity:1;" offset="0.5" id="stop96FF96" /><stop style="stop-color:#B6FFB6;stop-opacity:1;" offset="1.0" id="stopB6FFB6" /></linearGradient><linearGradient xmlns:xlink="http://www.w3.org/1999/xlink" xlink:href="#linearGradientF8FBFEEDF5FCDEEDFAD4E7F8E2E5E9" id="linearGradientF8FBFEEDF5FCDEEDFAD4E7F8E2E5E9_1423570957" x1="0" y1="201.0" x2="0" y2="307.0" gradientUnits="userSpaceOnUse" xlink:type="simple" xlink:actuate="onLoad" xlink:show="other" /><linearGradient id="linearGradientF8FBFEEDF5FCDEEDFAD4E7F8E2E5E9"><stop style="stop-color:#F8FBFE;stop-opacity:1;" offset="0.0" id="stopF8FBFE" /><stop style="stop-color:#EDF5FC;stop-opacity:1;" offset="0.25" id="stopEDF5FC" /><stop style="stop-color:#DEEDFA;stop-opacity:1;" offset="0.5" id="stopDEEDFA" /><stop style="stop-color:#D4E7F8;stop-opacity:1;" offset="0.75" id="stopD4E7F8" /><stop style="stop-color:#E2E5E9;stop-opacity:1;" offset="1.0" id="stopE2E5E9" /></linearGradient><linearGradient xmlns:xlink="http://www.w3.org/1999/xlink" xlink:href="#linearGradientFF6666FF9696FFB6B6" id="linearGradientFF6666FF9696FFB6B6_1357280846" x1="0" y1="66.0" x2="0" y2="101.0" gradientUnits="userSpaceOnUse" xlink:type="simple" xlink:actuate="onLoad" xlink:show="other" /><linearGradient id="linearGradientFF6666FF9696FFB6B6"><stop style="stop-color:#FF6666;stop-opacity:1;" offset="0.0" id="stopFF6666" /><stop style="stop-color:#FF9696;stop-opacity:1;" offset="0.5" id="stopFF9696" /><stop style="stop-color:#FFB6B6;stop-opacity:1;" offset="1.0" id="stopFFB6B6" /></linearGradient><linearGradient xmlns:xlink="http://www.w3.org/1999/xlink" xlink:href="#linearGradientFAFBFCFFFFCC" id="linearGradientFAFBFCFFFFCC_367325750" x1="0" y1="40.0" x2="0" y2="100.0" gradientUnits="userSpaceOnUse" xlink:type="simple" xlink:actuate="onLoad" xlink:show="other" /><linearGradient id="linearGradientFAFBFCFFFFCC"><stop style="stop-color:#FAFBFC;stop-opacity:1;" offset="0.0" id="stopFAFBFC" /><stop style="stop-color:#FFFFCC;stop-opacity:1;" offset="1.0" id="stopFFFFCC" /></linearGradient><linearGradient xmlns:xlink="http://www.w3.org/1999/xlink" xlink:href="#linearGradientFF6666FF9696FFB6B6" id="linearGradientFF6666FF9696FFB6B6_1060760153" x1="0" y1="211.0" x2="0" y2="246.0" gradientUnits="userSpaceOnUse" xlink:type="simple" xlink:actuate="onLoad" xlink:show="other" /><linearGradient xmlns:xlink="http://www.w3.org/1999/xlink" xlink:href="#linearGradientFAFBFCFFFFCC" id="linearGradientFAFBFCFFFFCC_616260643" x1="0" y1="185.0" x2="0" y2="245.0" gradientUnits="userSpaceOnUse" xlink:type="simple" xlink:actuate="onLoad" xlink:show="other" /><linearGradient xmlns:xlink="http://www.w3.org/1999/xlink" xlink:href="#linearGradientF8FBFEEDF5FCDEEDFAD4E7F8E2E5E9" id="linearGradientF8FBFEEDF5FCDEEDFAD4E7F8E2E5E9_1200366332" x1="0" y1="42.0" x2="0" y2="148.0" gradientUnits="userSpaceOnUse" xlink:type="simple" xlink:actuate="onLoad" xlink:show="other" /></defs></svg>
